<svg xmlns="http://www.w3.org/2000/svg" xmlns:xlink="http://www.w3.org/1999/xlink" contentStyleType="text/css" data-diagram-type="CLASS" height="561px" preserveAspectRatio="none" style="width:177px;height:561px;background:#FFFFFF;" version="1.1" viewBox="0 0 177 561" width="177px" zoomAndPan="magnify"><title>Diagrama De Clase</title><defs/><g><text fill="#000000" font-family="sans-serif" font-size="14" font-weight="bold" lengthAdjust="spacing" textLength="149.4883" x="10" y="22.9951">Diagrama De Clase</text><!--class Tarea--><g id="elem_Tarea"><rect codeLine="2" fill="#F1F1F1" height="162.0781" id="Tarea" rx="2.5" ry="2.5" style="stroke:#181818;stroke-width:0.5;" width="131.9092" x="25.7867" y="392.0769"/><ellipse cx="67.7103" cy="408.0769" fill="#ADD1B2" rx="11" ry="11" style="stroke:#181818;stroke-width:1;"/><path d="M70.679,413.7175 Q70.1009,414.0144 69.4603,414.155 Q68.8196,414.3113 68.1165,414.3113 Q65.6165,414.3113 64.2884,412.6706 Q62.9759,411.0144 62.9759,407.8894 Q62.9759,404.7644 64.2884,403.1081 Q65.6165,401.4519 68.1165,401.4519 Q68.8196,401.4519 69.4603,401.6081 Q70.1165,401.7644 70.679,402.0613 L70.679,404.78 Q70.054,404.2019 69.4603,403.9363 Q68.8665,403.655 68.2415,403.655 Q66.8978,403.655 66.2103,404.7331 Q65.5228,405.7956 65.5228,407.8894 Q65.5228,409.9831 66.2103,411.0613 Q66.8978,412.1238 68.2415,412.1238 Q68.8665,412.1238 69.4603,411.8581 Q70.054,411.5769 70.679,410.9988 L70.679,413.7175 Z " fill="#000000"/><text fill="#000000" font-family="sans-serif" font-size="14" lengthAdjust="spacing" textLength="40.0791" x="87.6933" y="412.9236">Tarea</text><line style="stroke:#181818;stroke-width:0.5;" x1="26.7867" x2="156.6959" y1="424.0769" y2="424.0769"/><rect fill="none" height="6" style="stroke:#C82930;stroke-width:1;" width="6" x="33.7867" y="434.7253"/><text fill="#000000" font-family="sans-serif" font-size="14" lengthAdjust="spacing" textLength="12.7764" x="45.7867" y="441.072">id</text><rect fill="none" height="6" style="stroke:#C82930;stroke-width:1;" width="6" x="33.7867" y="451.0222"/><text fill="#000000" font-family="sans-serif" font-size="14" lengthAdjust="spacing" textLength="36.1963" x="45.7867" y="457.3689">titulo</text><rect fill="none" height="6" style="stroke:#C82930;stroke-width:1;" width="6" x="33.7867" y="467.3191"/><text fill="#000000" font-family="sans-serif" font-size="14" lengthAdjust="spacing" textLength="80.0488" x="45.7867" y="473.6657">descripcion</text><rect fill="none" height="6" style="stroke:#C82930;stroke-width:1;" width="6" x="33.7867" y="483.6159"/><text fill="#000000" font-family="sans-serif" font-size="14" lengthAdjust="spacing" textLength="47.4277" x="45.7867" y="489.9626">estado</text><ellipse cx="36.7867" cy="502.9128" fill="none" rx="3" ry="3" style="stroke:#038048;stroke-width:1;"/><text fill="#000000" font-family="sans-serif" font-size="14" lengthAdjust="spacing" textLength="76.4805" x="45.7867" y="506.2595">crearTarea</text><ellipse cx="36.7867" cy="519.2097" fill="none" rx="3" ry="3" style="stroke:#038048;stroke-width:1;"/><text fill="#000000" font-family="sans-serif" font-size="14" lengthAdjust="spacing" textLength="105.9092" x="45.7867" y="522.5564">modificarTarea</text><ellipse cx="36.7867" cy="535.5066" fill="none" rx="3" ry="3" style="stroke:#038048;stroke-width:1;"/><text fill="#000000" font-family="sans-serif" font-size="14" lengthAdjust="spacing" textLength="97.207" x="45.7867" y="538.8532">eliminarTarea</text><line style="stroke:#181818;stroke-width:0.5;" x1="26.7867" x2="156.6959" y1="546.155" y2="546.155"/></g><!--class Usuario--><g id="elem_Usuario"><rect codeLine="12" fill="#F1F1F1" height="129.4844" id="Usuario" rx="2.5" ry="2.5" style="stroke:#181818;stroke-width:0.5;" width="139.3193" x="22.0867" y="185.5969"/><ellipse cx="61.4386" cy="201.5969" fill="#ADD1B2" rx="11" ry="11" style="stroke:#181818;stroke-width:1;"/><path d="M64.4073,207.2375 Q63.8292,207.5344 63.1886,207.675 Q62.5479,207.8313 61.8448,207.8313 Q59.3448,207.8313 58.0167,206.1906 Q56.7042,204.5344 56.7042,201.4094 Q56.7042,198.2844 58.0167,196.6281 Q59.3448,194.9719 61.8448,194.9719 Q62.5479,194.9719 63.1886,195.1281 Q63.8448,195.2844 64.4073,195.5813 L64.4073,198.3 Q63.7823,197.7219 63.1886,197.4563 Q62.5948,197.175 61.9698,197.175 Q60.6261,197.175 59.9386,198.2531 Q59.2511,199.3156 59.2511,201.4094 Q59.2511,203.5031 59.9386,204.5813 Q60.6261,205.6438 61.9698,205.6438 Q62.5948,205.6438 63.1886,205.3781 Q63.7823,205.0969 64.4073,204.5188 L64.4073,207.2375 Z " fill="#000000"/><text fill="#000000" font-family="sans-serif" font-size="14" lengthAdjust="spacing" textLength="53.2041" x="80.8501" y="206.4436">Usuario</text><line style="stroke:#181818;stroke-width:0.5;" x1="23.0867" x2="160.4061" y1="217.5969" y2="217.5969"/><rect fill="none" height="6" style="stroke:#C82930;stroke-width:1;" width="6" x="30.0867" y="228.2453"/><text fill="#000000" font-family="sans-serif" font-size="14" lengthAdjust="spacing" textLength="12.7764" x="42.0867" y="234.592">id</text><rect fill="none" height="6" style="stroke:#C82930;stroke-width:1;" width="6" x="30.0867" y="244.5422"/><text fill="#000000" font-family="sans-serif" font-size="14" lengthAdjust="spacing" textLength="54.332" x="42.0867" y="250.8889">nombre</text><rect fill="none" height="6" style="stroke:#C82930;stroke-width:1;" width="6" x="30.0867" y="260.8391"/><text fill="#000000" font-family="sans-serif" font-size="14" lengthAdjust="spacing" textLength="38.6094" x="42.0867" y="267.1857">email</text><ellipse cx="33.0867" cy="280.1359" fill="none" rx="3" ry="3" style="stroke:#038048;stroke-width:1;"/><text fill="#000000" font-family="sans-serif" font-size="14" lengthAdjust="spacing" textLength="71.8389" x="42.0867" y="283.4826">autenticar</text><ellipse cx="33.0867" cy="296.4328" fill="none" rx="3" ry="3" style="stroke:#038048;stroke-width:1;"/><text fill="#000000" font-family="sans-serif" font-size="14" lengthAdjust="spacing" textLength="113.3193" x="42.0867" y="299.7795">gestionarTareas</text><line style="stroke:#181818;stroke-width:0.5;" x1="23.0867" x2="160.4061" y1="307.0813" y2="307.0813"/></g><!--class Sistema--><g id="elem_Sistema"><rect codeLine="20" fill="#F1F1F1" height="64.2969" id="Sistema" rx="2.5" ry="2.5" style="stroke:#181818;stroke-width:0.5;" width="147.2148" x="18.1367" y="44.2969"/><ellipse cx="59.6081" cy="60.2969" fill="#ADD1B2" rx="11" ry="11" style="stroke:#181818;stroke-width:1;"/><path d="M62.5768,65.9375 Q61.9987,66.2344 61.3581,66.375 Q60.7174,66.5313 60.0143,66.5313 Q57.5143,66.5313 56.1862,64.8906 Q54.8737,63.2344 54.8737,60.1094 Q54.8737,56.9844 56.1862,55.3281 Q57.5143,53.6719 60.0143,53.6719 Q60.7174,53.6719 61.3581,53.8281 Q62.0143,53.9844 62.5768,54.2813 L62.5768,57 Q61.9518,56.4219 61.3581,56.1563 Q60.7643,55.875 60.1393,55.875 Q58.7956,55.875 58.1081,56.9531 Q57.4206,58.0156 57.4206,60.1094 Q57.4206,62.2031 58.1081,63.2813 Q58.7956,64.3438 60.1393,64.3438 Q60.7643,64.3438 61.3581,64.0781 Q61.9518,63.7969 62.5768,63.2188 L62.5768,65.9375 Z " fill="#000000"/><text fill="#000000" font-family="sans-serif" font-size="14" lengthAdjust="spacing" textLength="56.3896" x="79.4906" y="65.1436">Sistema</text><line style="stroke:#181818;stroke-width:0.5;" x1="19.1367" x2="164.3516" y1="76.2969" y2="76.2969"/><ellipse cx="29.1367" cy="89.9453" fill="none" rx="3" ry="3" style="stroke:#038048;stroke-width:1;"/><text fill="#000000" font-family="sans-serif" font-size="14" lengthAdjust="spacing" textLength="121.2148" x="38.1367" y="93.292">procesarSolicitud</text><line style="stroke:#181818;stroke-width:0.5;" x1="19.1367" x2="164.3516" y1="100.5938" y2="100.5938"/></g><!--link Usuario to Tarea--><g id="link_Usuario_Tarea"><path codeLine="24" d="M91.7467,315.4969 C91.7467,339.2969 91.7467,366.6069 91.7467,391.6869 " fill="none" id="Usuario-Tarea" style="stroke:#181818;stroke-width:1;"/><text fill="#000000" font-family="sans-serif" font-size="13" lengthAdjust="spacing" textLength="55.8911" x="92.7467" y="358.1438">gestiona</text></g><!--link Sistema to Usuario--><g id="link_Sistema_Usuario"><path codeLine="25" d="M91.7467,108.9769 C91.7467,130.2969 91.7467,159.2069 91.7467,185.2569 " fill="none" id="Sistema-Usuario" style="stroke:#181818;stroke-width:1;"/><text fill="#000000" font-family="sans-serif" font-size="13" lengthAdjust="spacing" textLength="61.3628" x="92.7467" y="151.6638">autentica</text></g><!--SRC=[LOzB3iCm24JtEGNADie5kcrkaFG0rAOHaZyLTbPLxrv2utusjWUODsRX6WWcnbKm8am4vu25EgTdWGM541uTm0ZixQfSjv3jwQauuRlZd4nJgUZtrW1EVM9kap5xlh7xBL7WoAbLdjsHU2aR2kV_p9JZLUYT4P630N2hbEeEDRbgkdxa09OlSUPIrMN40UwI7HMKEGTskehV1rleE1uRdw1llBvh0EssGUr_uliN]--></g></svg>