<svg xmlns="http://www.w3.org/2000/svg" xmlns:xlink="http://www.w3.org/1999/xlink" contentStyleType="text/css" data-diagram-type="CLASS" height="528px" preserveAspectRatio="none" style="width:175px;height:528px;background:#FFFFFF;" version="1.1" viewBox="0 0 175 528" width="175px" zoomAndPan="magnify"><title>Diagrama de Clase</title><defs/><g><text fill="#000000" font-family="sans-serif" font-size="14" font-weight="bold" lengthAdjust="spacing" textLength="147.8887" x="10" y="22.9951">Diagrama de Clase</text><!--class Cliente--><g id="elem_Cliente"><rect codeLine="2" fill="#F1F1F1" height="80.5938" id="Cliente" rx="2.5" ry="2.5" style="stroke:#181818;stroke-width:0.5;" width="155.9922" x="12.9482" y="44.2969"/><ellipse cx="62.1226" cy="60.2969" fill="#ADD1B2" rx="11" ry="11" style="stroke:#181818;stroke-width:1;"/><path d="M65.0913,65.9375 Q64.5132,66.2344 63.8726,66.375 Q63.2319,66.5313 62.5288,66.5313 Q60.0288,66.5313 58.7007,64.8906 Q57.3882,63.2344 57.3882,60.1094 Q57.3882,56.9844 58.7007,55.3281 Q60.0288,53.6719 62.5288,53.6719 Q63.2319,53.6719 63.8726,53.8281 Q64.5288,53.9844 65.0913,54.2813 L65.0913,57 Q64.4663,56.4219 63.8726,56.1563 Q63.2788,55.875 62.6538,55.875 Q61.3101,55.875 60.6226,56.9531 Q59.9351,58.0156 59.9351,60.1094 Q59.9351,62.2031 60.6226,63.2813 Q61.3101,64.3438 62.6538,64.3438 Q63.2788,64.3438 63.8726,64.0781 Q64.4663,63.7969 65.0913,63.2188 L65.0913,65.9375 Z " fill="#000000"/><text fill="#000000" font-family="sans-serif" font-size="14" lengthAdjust="spacing" textLength="49.1436" x="82.6226" y="65.1436">Cliente</text><line style="stroke:#181818;stroke-width:0.5;" x1="13.9482" x2="167.9404" y1="76.2969" y2="76.2969"/><ellipse cx="23.9482" cy="89.9453" fill="none" rx="3" ry="3" style="stroke:#038048;stroke-width:1;"/><text fill="#000000" font-family="sans-serif" font-size="14" lengthAdjust="spacing" textLength="129.9922" x="32.9482" y="93.292">SeleccionarOpcion</text><ellipse cx="23.9482" cy="106.2422" fill="none" rx="3" ry="3" style="stroke:#038048;stroke-width:1;"/><text fill="#000000" font-family="sans-serif" font-size="14" lengthAdjust="spacing" textLength="123.4365" x="32.9482" y="109.5889">MostrarResultado</text><line style="stroke:#181818;stroke-width:0.5;" x1="13.9482" x2="167.9404" y1="116.8906" y2="116.8906"/></g><!--class TareasService--><g id="elem_TareasService"><rect codeLine="7" fill="#F1F1F1" height="113.1875" id="TareasService" rx="2.5" ry="2.5" style="stroke:#181818;stroke-width:0.5;" width="131.1143" x="25.3882" y="201.8969"/><ellipse cx="40.3882" cy="217.8969" fill="#ADD1B2" rx="11" ry="11" style="stroke:#181818;stroke-width:1;"/><path d="M43.357,223.5375 Q42.7789,223.8344 42.1382,223.975 Q41.4976,224.1312 40.7945,224.1312 Q38.2945,224.1312 36.9664,222.4906 Q35.6539,220.8344 35.6539,217.7094 Q35.6539,214.5844 36.9664,212.9281 Q38.2945,211.2719 40.7945,211.2719 Q41.4976,211.2719 42.1382,211.4281 Q42.7945,211.5844 43.357,211.8812 L43.357,214.6 Q42.732,214.0219 42.1382,213.7562 Q41.5445,213.475 40.9195,213.475 Q39.5757,213.475 38.8882,214.5531 Q38.2007,215.6156 38.2007,217.7094 Q38.2007,219.8031 38.8882,220.8812 Q39.5757,221.9437 40.9195,221.9437 Q41.5445,221.9437 42.1382,221.6781 Q42.732,221.3969 43.357,220.8187 L43.357,223.5375 Z " fill="#000000"/><text fill="#000000" font-family="sans-serif" font-size="14" lengthAdjust="spacing" textLength="99.1143" x="54.3882" y="222.7436">TareasService</text><line style="stroke:#181818;stroke-width:0.5;" x1="26.3882" x2="155.5025" y1="233.8969" y2="233.8969"/><ellipse cx="36.3882" cy="247.5453" fill="none" rx="3" ry="3" style="stroke:#038048;stroke-width:1;"/><text fill="#000000" font-family="sans-serif" font-size="14" lengthAdjust="spacing" textLength="78.5586" x="45.3882" y="250.892">CrearTarea</text><ellipse cx="36.3882" cy="263.8422" fill="none" rx="3" ry="3" style="stroke:#038048;stroke-width:1;"/><text fill="#000000" font-family="sans-serif" font-size="14" lengthAdjust="spacing" textLength="86.1807" x="45.3882" y="267.1889">ListarTareas</text><ellipse cx="36.3882" cy="280.1391" fill="none" rx="3" ry="3" style="stroke:#038048;stroke-width:1;"/><text fill="#000000" font-family="sans-serif" font-size="14" lengthAdjust="spacing" textLength="104.3506" x="45.3882" y="283.4857">ModificarTarea</text><ellipse cx="36.3882" cy="296.4359" fill="none" rx="3" ry="3" style="stroke:#038048;stroke-width:1;"/><text fill="#000000" font-family="sans-serif" font-size="14" lengthAdjust="spacing" textLength="97.4395" x="45.3882" y="299.7826">EliminarTarea</text><line style="stroke:#181818;stroke-width:0.5;" x1="26.3882" x2="155.5025" y1="307.0844" y2="307.0844"/></g><!--class TareaDataAccess--><g id="elem_TareaDataAccess"><rect codeLine="14" fill="#F1F1F1" height="129.4844" id="TareaDataAccess" rx="2.5" ry="2.5" style="stroke:#181818;stroke-width:0.5;" width="153.6797" x="14.1082" y="392.0869"/><ellipse cx="29.1082" cy="408.0869" fill="#ADD1B2" rx="11" ry="11" style="stroke:#181818;stroke-width:1;"/><path d="M32.077,413.7275 Q31.4989,414.0244 30.8582,414.165 Q30.2176,414.3212 29.5145,414.3212 Q27.0145,414.3212 25.6864,412.6806 Q24.3739,411.0244 24.3739,407.8994 Q24.3739,404.7744 25.6864,403.1181 Q27.0145,401.4619 29.5145,401.4619 Q30.2176,401.4619 30.8582,401.6181 Q31.5145,401.7744 32.077,402.0712 L32.077,404.79 Q31.452,404.2119 30.8582,403.9462 Q30.2645,403.665 29.6395,403.665 Q28.2957,403.665 27.6082,404.7431 Q26.9207,405.8056 26.9207,407.8994 Q26.9207,409.9931 27.6082,411.0712 Q28.2957,412.1337 29.6395,412.1337 Q30.2645,412.1337 30.8582,411.8681 Q31.452,411.5869 32.077,411.0087 L32.077,413.7275 Z " fill="#000000"/><text fill="#000000" font-family="sans-serif" font-size="14" lengthAdjust="spacing" textLength="121.6797" x="43.1082" y="412.9336">TareaDataAccess</text><line style="stroke:#181818;stroke-width:0.5;" x1="15.1082" x2="166.7879" y1="424.0869" y2="424.0869"/><rect fill="none" height="6" style="stroke:#C82930;stroke-width:1;" width="6" x="22.1082" y="434.7353"/><text fill="#000000" font-family="sans-serif" font-size="14" lengthAdjust="spacing" textLength="118.918" x="34.1082" y="441.082">connectionString</text><ellipse cx="25.1082" cy="454.0322" fill="none" rx="3" ry="3" style="stroke:#038048;stroke-width:1;"/><text fill="#000000" font-family="sans-serif" font-size="14" lengthAdjust="spacing" textLength="78.5586" x="34.1082" y="457.3789">CrearTarea</text><ellipse cx="25.1082" cy="470.3291" fill="none" rx="3" ry="3" style="stroke:#038048;stroke-width:1;"/><text fill="#000000" font-family="sans-serif" font-size="14" lengthAdjust="spacing" textLength="86.1807" x="34.1082" y="473.6757">ListarTareas</text><ellipse cx="25.1082" cy="486.6259" fill="none" rx="3" ry="3" style="stroke:#038048;stroke-width:1;"/><text fill="#000000" font-family="sans-serif" font-size="14" lengthAdjust="spacing" textLength="104.3506" x="34.1082" y="489.9726">ModificarTarea</text><ellipse cx="25.1082" cy="502.9228" fill="none" rx="3" ry="3" style="stroke:#038048;stroke-width:1;"/><text fill="#000000" font-family="sans-serif" font-size="14" lengthAdjust="spacing" textLength="97.4395" x="34.1082" y="506.2695">EliminarTarea</text><line style="stroke:#181818;stroke-width:0.5;" x1="15.1082" x2="166.7879" y1="513.5713" y2="513.5713"/></g><!--link Cliente to TareasService--><g id="link_Cliente_TareasService"><path codeLine="22" d="M90.9482,125.0369 C90.9482,147.7269 90.9482,170.6269 90.9482,195.6269 " fill="none" id="Cliente-to-TareasService" style="stroke:#181818;stroke-width:1;"/><polygon fill="#181818" points="90.9482,201.6269,94.9482,192.6269,90.9482,196.6269,86.9482,192.6269,90.9482,201.6269" style="stroke:#181818;stroke-width:1;"/><text fill="#000000" font-family="sans-serif" font-size="13" lengthAdjust="spacing" textLength="66.9297" x="91.9482" y="167.9638">Interact&#250;a</text></g><!--link TareasService to TareaDataAccess--><g id="link_TareasService_TareaDataAccess"><path codeLine="23" d="M90.9482,315.4869 C90.9482,339.2869 90.9482,361.1769 90.9482,385.7869 " fill="none" id="TareasService-to-TareaDataAccess" style="stroke:#181818;stroke-width:1;"/><polygon fill="#181818" points="90.9482,391.7869,94.9482,382.7869,90.9482,386.7869,86.9482,382.7869,90.9482,391.7869" style="stroke:#181818;stroke-width:1;"/><text fill="#000000" font-family="sans-serif" font-size="13" lengthAdjust="spacing" textLength="24.2544" x="91.9482" y="358.1538">Usa</text></g><!--SRC=[hKz12i903BplA_Ok_K0FWhGU14MmzG4XZIMmtPLiz29-pAiVSwkjj9wz99b9CfdKh8vioT0AT60RieM3I0PJZAbcyahsPgnTLEG8aOC7sP_xt9Ex45L03XGlJg49vcw6tHg485OaLyP1eKYClFaURJdg0ED7gk4JusHYxRXZFn9pvH8KLeYKSA-TOV2UK9EjIeLz-vTxu_zPjlpv9xURr110VJx0p7lVwOd7t1uZl000]--></g></svg>