<svg xmlns="http://www.w3.org/2000/svg" xmlns:xlink="http://www.w3.org/1999/xlink" contentStyleType="text/css" data-diagram-type="ACTIVITY" height="517px" preserveAspectRatio="none" style="width:1155px;height:517px;background:#FFFFFF;" version="1.1" viewBox="0 0 1155 517" width="1155px" zoomAndPan="magnify"><title>Diagrama de Flujo</title><defs/><g><text fill="#000000" font-family="sans-serif" font-size="14" font-weight="bold" lengthAdjust="spacing" textLength="144.2861" x="504.2856" y="32.9951">Diagrama de Flujo</text><ellipse cx="381.7373" cy="57.2969" fill="#222222" rx="10" ry="10" style="stroke:#222222;stroke-width:1;"/><rect fill="#F1F1F1" height="33.9688" rx="12.5" ry="12.5" style="stroke:#181818;stroke-width:0.5;" width="154.5781" x="304.4482" y="87.2969"/><text fill="#000000" font-family="sans-serif" font-size="12" lengthAdjust="spacing" textLength="134.5781" x="314.4482" y="108.4355">Selecciona una opci&#243;n</text><polygon fill="#F1F1F1" points="339.8105,141.2656,423.6641,141.2656,435.6641,153.2656,423.6641,165.2656,339.8105,165.2656,327.8105,153.2656,339.8105,141.2656" style="stroke:#181818;stroke-width:0.5;"/><text fill="#000000" font-family="sans-serif" font-size="11" lengthAdjust="spacing" textLength="83.8535" x="339.8105" y="157.0737">&#191;Opci&#243;n Crear?</text><text fill="#000000" font-family="sans-serif" font-size="11" lengthAdjust="spacing" textLength="10.0386" x="317.772" y="150.6714">S&#237;</text><rect fill="#F1F1F1" height="33.9688" rx="12.5" ry="12.5" style="stroke:#181818;stroke-width:0.5;" width="255.1836" x="11" y="175.2656"/><text fill="#000000" font-family="sans-serif" font-size="12" lengthAdjust="spacing" textLength="235.1836" x="21" y="196.4043">Usuario ingresa descripci&#243;n de la tarea</text><rect fill="#F1F1F1" height="33.9688" rx="12.5" ry="12.5" style="stroke:#181818;stroke-width:0.5;" width="221.3281" x="27.9277" y="244.2344"/><text fill="#000000" font-family="sans-serif" font-size="12" lengthAdjust="spacing" textLength="201.3281" x="37.9277" y="265.373">Guarda tarea en la base de datos</text><polygon fill="#F1F1F1" points="592.8235,175.2656,696.9421,175.2656,708.9421,187.2656,696.9421,199.2656,592.8235,199.2656,580.8235,187.2656,592.8235,175.2656" style="stroke:#181818;stroke-width:0.5;"/><text fill="#000000" font-family="sans-serif" font-size="11" lengthAdjust="spacing" textLength="104.1187" x="592.8235" y="191.0737">&#191;Opci&#243;n Modificar?</text><text fill="#000000" font-family="sans-serif" font-size="11" lengthAdjust="spacing" textLength="10.0386" x="570.7849" y="184.6714">S&#237;</text><rect fill="#F1F1F1" height="33.9688" rx="12.5" ry="12.5" style="stroke:#181818;stroke-width:0.5;" width="285.834" x="276.1836" y="209.2656"/><text fill="#000000" font-family="sans-serif" font-size="12" lengthAdjust="spacing" textLength="265.834" x="286.1836" y="230.4043">Usuario selecciona una tarea para modificar</text><rect fill="#F1F1F1" height="33.9688" rx="12.5" ry="12.5" style="stroke:#181818;stroke-width:0.5;" width="283.3438" x="277.4287" y="278.2344"/><text fill="#000000" font-family="sans-serif" font-size="12" lengthAdjust="spacing" textLength="263.3438" x="287.4287" y="299.373">Actualiza la descripci&#243;n en la base de datos</text><polygon fill="#F1F1F1" points="821.3208,209.2656,920.0093,209.2656,932.0093,221.2656,920.0093,233.2656,821.3208,233.2656,809.3208,221.2656,821.3208,209.2656" style="stroke:#181818;stroke-width:0.5;"/><text fill="#000000" font-family="sans-serif" font-size="11" lengthAdjust="spacing" textLength="98.6885" x="821.3208" y="225.0737">&#191;Opci&#243;n Eliminar?</text><text fill="#000000" font-family="sans-serif" font-size="11" lengthAdjust="spacing" textLength="10.0386" x="799.2822" y="218.6714">S&#237;</text><rect fill="#F1F1F1" height="33.9688" rx="12.5" ry="12.5" style="stroke:#181818;stroke-width:0.5;" width="278.375" x="592.0176" y="243.2656"/><text fill="#000000" font-family="sans-serif" font-size="12" lengthAdjust="spacing" textLength="258.375" x="602.0176" y="264.4043">Usuario selecciona una tarea para eliminar</text><rect fill="#F1F1F1" height="33.9688" rx="12.5" ry="12.5" style="stroke:#181818;stroke-width:0.5;" width="221.4102" x="620.5" y="312.2344"/><text fill="#000000" font-family="sans-serif" font-size="12" lengthAdjust="spacing" textLength="201.4102" x="630.5" y="333.373">Elimina tarea de la base de datos</text><rect fill="#F1F1F1" height="33.9688" rx="12.5" ry="12.5" style="stroke:#181818;stroke-width:0.5;" width="219.4648" x="900.3926" y="291.668"/><text fill="#000000" font-family="sans-serif" font-size="12" lengthAdjust="spacing" textLength="199.4648" x="910.3926" y="312.8066">Lista todas las tareas disponibles</text><polygon fill="#F1F1F1" points="973.9077,243.2656,1046.3423,243.2656,1058.3423,255.2656,1046.3423,267.2656,973.9077,267.2656,961.9077,255.2656,973.9077,243.2656" style="stroke:#181818;stroke-width:0.5;"/><text fill="#000000" font-family="sans-serif" font-size="11" lengthAdjust="spacing" textLength="10.0386" x="1014.125" y="277.4761">S&#237;</text><text fill="#000000" font-family="sans-serif" font-size="11" lengthAdjust="spacing" textLength="72.4346" x="973.9077" y="259.0737">&#191;Opci&#243;n Ver?</text><polygon fill="#F1F1F1" points="1010.125,350.0391,1022.125,362.0391,1010.125,374.0391,998.125,362.0391,1010.125,350.0391" style="stroke:#181818;stroke-width:0.5;"/><polygon fill="#F1F1F1" points="870.665,380.0391,882.665,392.0391,870.665,404.0391,858.665,392.0391,870.665,380.0391" style="stroke:#181818;stroke-width:0.5;"/><polygon fill="#F1F1F1" points="644.8828,410.0391,656.8828,422.0391,644.8828,434.0391,632.8828,422.0391,644.8828,410.0391" style="stroke:#181818;stroke-width:0.5;"/><polygon fill="#F1F1F1" points="381.7373,440.0391,393.7373,452.0391,381.7373,464.0391,369.7373,452.0391,381.7373,440.0391" style="stroke:#181818;stroke-width:0.5;"/><ellipse cx="381.7373" cy="495.0391" fill="none" rx="11" ry="11" style="stroke:#222222;stroke-width:1;"/><ellipse cx="381.7373" cy="495.0391" fill="#222222" rx="6" ry="6" style="stroke:#222222;stroke-width:1;"/><line style="stroke:#181818;stroke-width:1;" x1="381.7373" x2="381.7373" y1="67.2969" y2="87.2969"/><polygon fill="#181818" points="377.7373,77.2969,381.7373,87.2969,385.7373,77.2969,381.7373,81.2969" style="stroke:#181818;stroke-width:1;"/><line style="stroke:#181818;stroke-width:1;" x1="138.5918" x2="138.5918" y1="209.2344" y2="244.2344"/><polygon fill="#181818" points="134.5918,234.2344,138.5918,244.2344,142.5918,234.2344,138.5918,238.2344" style="stroke:#181818;stroke-width:1;"/><line style="stroke:#181818;stroke-width:1;" x1="419.1006" x2="419.1006" y1="243.2344" y2="278.2344"/><polygon fill="#181818" points="415.1006,268.2344,419.1006,278.2344,423.1006,268.2344,419.1006,272.2344" style="stroke:#181818;stroke-width:1;"/><line style="stroke:#181818;stroke-width:1;" x1="731.2051" x2="731.2051" y1="277.2344" y2="312.2344"/><polygon fill="#181818" points="727.2051,302.2344,731.2051,312.2344,735.2051,302.2344,731.2051,306.2344" style="stroke:#181818;stroke-width:1;"/><line style="stroke:#181818;stroke-width:1;" x1="1010.125" x2="1010.125" y1="267.2656" y2="291.668"/><polygon fill="#181818" points="1006.125,281.668,1010.125,291.668,1014.125,281.668,1010.125,285.668" style="stroke:#181818;stroke-width:1;"/><line style="stroke:#181818;stroke-width:1;" x1="1058.3423" x2="1129.8574" y1="255.2656" y2="255.2656"/><polygon fill="#181818" points="1125.8574,298.6523,1129.8574,308.6523,1133.8574,298.6523,1129.8574,302.6523" style="stroke:#181818;stroke-width:1;"/><line style="stroke:#181818;stroke-width:1;" x1="1129.8574" x2="1129.8574" y1="255.2656" y2="362.0391"/><line style="stroke:#181818;stroke-width:1;" x1="1129.8574" x2="1022.125" y1="362.0391" y2="362.0391"/><polygon fill="#181818" points="1032.125,358.0391,1022.125,362.0391,1032.125,366.0391,1028.125,362.0391" style="stroke:#181818;stroke-width:1;"/><line style="stroke:#181818;stroke-width:1;" x1="1010.125" x2="1010.125" y1="325.6367" y2="350.0391"/><polygon fill="#181818" points="1006.125,340.0391,1010.125,350.0391,1014.125,340.0391,1010.125,344.0391" style="stroke:#181818;stroke-width:1;"/><line style="stroke:#181818;stroke-width:1;" x1="809.3208" x2="731.2051" y1="221.2656" y2="221.2656"/><line style="stroke:#181818;stroke-width:1;" x1="731.2051" x2="731.2051" y1="221.2656" y2="243.2656"/><polygon fill="#181818" points="727.2051,233.2656,731.2051,243.2656,735.2051,233.2656,731.2051,237.2656" style="stroke:#181818;stroke-width:1;"/><line style="stroke:#181818;stroke-width:1;" x1="932.0093" x2="1010.125" y1="221.2656" y2="221.2656"/><line style="stroke:#181818;stroke-width:1;" x1="1010.125" x2="1010.125" y1="221.2656" y2="243.2656"/><polygon fill="#181818" points="1006.125,233.2656,1010.125,243.2656,1014.125,233.2656,1010.125,237.2656" style="stroke:#181818;stroke-width:1;"/><line style="stroke:#181818;stroke-width:1;" x1="731.2051" x2="731.2051" y1="346.2031" y2="392.0391"/><line style="stroke:#181818;stroke-width:1;" x1="731.2051" x2="858.665" y1="392.0391" y2="392.0391"/><polygon fill="#181818" points="848.665,388.0391,858.665,392.0391,848.665,396.0391,852.665,392.0391" style="stroke:#181818;stroke-width:1;"/><line style="stroke:#181818;stroke-width:1;" x1="1010.125" x2="1010.125" y1="374.0391" y2="392.0391"/><line style="stroke:#181818;stroke-width:1;" x1="1010.125" x2="882.665" y1="392.0391" y2="392.0391"/><polygon fill="#181818" points="892.665,388.0391,882.665,392.0391,892.665,396.0391,888.665,392.0391" style="stroke:#181818;stroke-width:1;"/><line style="stroke:#181818;stroke-width:1;" x1="580.8235" x2="419.1006" y1="187.2656" y2="187.2656"/><line style="stroke:#181818;stroke-width:1;" x1="419.1006" x2="419.1006" y1="187.2656" y2="209.2656"/><polygon fill="#181818" points="415.1006,199.2656,419.1006,209.2656,423.1006,199.2656,419.1006,203.2656" style="stroke:#181818;stroke-width:1;"/><line style="stroke:#181818;stroke-width:1;" x1="708.9421" x2="870.665" y1="187.2656" y2="187.2656"/><line style="stroke:#181818;stroke-width:1;" x1="870.665" x2="870.665" y1="187.2656" y2="209.2656"/><polygon fill="#181818" points="866.665,199.2656,870.665,209.2656,874.665,199.2656,870.665,203.2656" style="stroke:#181818;stroke-width:1;"/><line style="stroke:#181818;stroke-width:1;" x1="419.1006" x2="419.1006" y1="312.2031" y2="422.0391"/><line style="stroke:#181818;stroke-width:1;" x1="419.1006" x2="632.8828" y1="422.0391" y2="422.0391"/><polygon fill="#181818" points="622.8828,418.0391,632.8828,422.0391,622.8828,426.0391,626.8828,422.0391" style="stroke:#181818;stroke-width:1;"/><line style="stroke:#181818;stroke-width:1;" x1="870.665" x2="870.665" y1="404.0391" y2="422.0391"/><line style="stroke:#181818;stroke-width:1;" x1="870.665" x2="656.8828" y1="422.0391" y2="422.0391"/><polygon fill="#181818" points="666.8828,418.0391,656.8828,422.0391,666.8828,426.0391,662.8828,422.0391" style="stroke:#181818;stroke-width:1;"/><line style="stroke:#181818;stroke-width:1;" x1="327.8105" x2="138.5918" y1="153.2656" y2="153.2656"/><line style="stroke:#181818;stroke-width:1;" x1="138.5918" x2="138.5918" y1="153.2656" y2="175.2656"/><polygon fill="#181818" points="134.5918,165.2656,138.5918,175.2656,142.5918,165.2656,138.5918,169.2656" style="stroke:#181818;stroke-width:1;"/><line style="stroke:#181818;stroke-width:1;" x1="435.6641" x2="644.8828" y1="153.2656" y2="153.2656"/><line style="stroke:#181818;stroke-width:1;" x1="644.8828" x2="644.8828" y1="153.2656" y2="175.2656"/><polygon fill="#181818" points="640.8828,165.2656,644.8828,175.2656,648.8828,165.2656,644.8828,169.2656" style="stroke:#181818;stroke-width:1;"/><line style="stroke:#181818;stroke-width:1;" x1="138.5918" x2="138.5918" y1="278.2031" y2="452.0391"/><line style="stroke:#181818;stroke-width:1;" x1="138.5918" x2="369.7373" y1="452.0391" y2="452.0391"/><polygon fill="#181818" points="359.7373,448.0391,369.7373,452.0391,359.7373,456.0391,363.7373,452.0391" style="stroke:#181818;stroke-width:1;"/><line style="stroke:#181818;stroke-width:1;" x1="644.8828" x2="644.8828" y1="434.0391" y2="452.0391"/><line style="stroke:#181818;stroke-width:1;" x1="644.8828" x2="393.7373" y1="452.0391" y2="452.0391"/><polygon fill="#181818" points="403.7373,448.0391,393.7373,452.0391,403.7373,456.0391,399.7373,452.0391" style="stroke:#181818;stroke-width:1;"/><line style="stroke:#181818;stroke-width:1;" x1="381.7373" x2="381.7373" y1="121.2656" y2="141.2656"/><polygon fill="#181818" points="377.7373,131.2656,381.7373,141.2656,385.7373,131.2656,381.7373,135.2656" style="stroke:#181818;stroke-width:1;"/><line style="stroke:#181818;stroke-width:1;" x1="381.7373" x2="381.7373" y1="464.0391" y2="484.0391"/><polygon fill="#181818" points="377.7373,474.0391,381.7373,484.0391,385.7373,474.0391,381.7373,478.0391" style="stroke:#181818;stroke-width:1;"/><!--SRC=[ZP6zJiCm4CTtFyMDxIiq0qBbOm4n5DYlzhKSSkp8vonz9oOU08c-61VPaP8s0uDZ9_v__6A_SlO4Tup7X2s28tZm_MSqaZ5bizcH9siv1eHUH-midxz3O_W0gz-Vb_8AsqIORjQGFoZ0QdV-MXk0pPlqc3W2XsCY6RB59guMBV88MaBO3E97rRhw0JH5D_SeDEWSvYYD8I-aoddpStHyO7lTFkcN-J-KYWuJGZkwc-AujRb7poSSwcUuYqG0bUcIwjvpos49wbzOLEtDQAbvLLEExefbGdF9yqwBA9hyn7hHaAD3qL0f3GAEfOk1zvvaXA2WPsMcgpANf-JO_G40]--></g></svg>