<svg xmlns="http://www.w3.org/2000/svg" xmlns:xlink="http://www.w3.org/1999/xlink" contentStyleType="text/css" data-diagram-type="ACTIVITY" height="573px" preserveAspectRatio="none" style="width:1449px;height:573px;background:#FFFFFF;" version="1.1" viewBox="0 0 1449 573" width="1449px" zoomAndPan="magnify"><title>Diagrama de Flujo</title><defs/><g><text fill="#000000" font-family="sans-serif" font-size="14" font-weight="bold" lengthAdjust="spacing" textLength="144.2861" x="651.3052" y="32.9951">Diagrama de Flujo</text><ellipse cx="735.4482" cy="57.2969" fill="#222222" rx="10" ry="10" style="stroke:#222222;stroke-width:1;"/><rect fill="#F1F1F1" height="33.9688" rx="12.5" ry="12.5" style="stroke:#181818;stroke-width:0.5;" width="176.2813" x="647.3076" y="87.2969"/><text fill="#000000" font-family="sans-serif" font-size="12" lengthAdjust="spacing" textLength="156.2813" x="657.3076" y="108.4355">Cliente inicia la aplicaci&#243;n</text><rect fill="#F1F1F1" height="33.9688" rx="12.5" ry="12.5" style="stroke:#181818;stroke-width:0.5;" width="154.5781" x="658.1592" y="141.2656"/><text fill="#000000" font-family="sans-serif" font-size="12" lengthAdjust="spacing" textLength="134.5781" x="668.1592" y="162.4043">Selecciona una opci&#243;n</text><polygon fill="#F1F1F1" points="147.9788,195.2344,224.8767,195.2344,236.8767,207.2344,224.8767,219.2344,147.9788,219.2344,135.9788,207.2344,147.9788,195.2344" style="stroke:#181818;stroke-width:0.5;"/><text fill="#000000" font-family="sans-serif" font-size="11" lengthAdjust="spacing" textLength="8.7871" x="190.4277" y="229.4448">s&#237;</text><text fill="#000000" font-family="sans-serif" font-size="11" lengthAdjust="spacing" textLength="76.8979" x="147.9788" y="211.0425">&#191;Crear Tarea?</text><rect fill="#F1F1F1" height="33.9688" rx="12.5" ry="12.5" style="stroke:#181818;stroke-width:0.5;" width="183.2715" x="94.792" y="250.9448"/><text fill="#000000" font-family="sans-serif" font-size="12" lengthAdjust="spacing" textLength="163.2715" x="104.792" y="272.0835">Introduce datos de la tarea</text><rect fill="#F1F1F1" height="33.9688" rx="12.5" ry="12.5" style="stroke:#181818;stroke-width:0.5;" width="321.0723" x="25.8916" y="304.9136"/><text fill="#000000" font-family="sans-serif" font-size="12" lengthAdjust="spacing" textLength="301.0723" x="35.8916" y="326.0522">Llama al m&#233;todo CrearTarea() en el servicio SOAP</text><rect fill="#F1F1F1" height="33.9688" rx="12.5" ry="12.5" style="stroke:#181818;stroke-width:0.5;" width="350.8555" x="11" y="358.8823"/><text fill="#000000" font-family="sans-serif" font-size="12" lengthAdjust="spacing" textLength="330.8555" x="21" y="380.021">Servicio llama a la base de datos para guardar la tarea</text><rect fill="#F1F1F1" height="33.9688" rx="12.5" ry="12.5" style="stroke:#181818;stroke-width:0.5;" width="185.457" x="93.6992" y="412.8511"/><text fill="#000000" font-family="sans-serif" font-size="12" lengthAdjust="spacing" textLength="165.457" x="103.6992" y="433.9897">Tarea creada exitosamente</text><polygon fill="#F1F1F1" points="494.2148,195.2344,577.1016,195.2344,589.1016,207.2344,577.1016,219.2344,494.2148,219.2344,482.2148,207.2344,494.2148,195.2344" style="stroke:#181818;stroke-width:0.5;"/><text fill="#000000" font-family="sans-serif" font-size="11" lengthAdjust="spacing" textLength="8.7871" x="539.6582" y="229.4448">s&#237;</text><text fill="#000000" font-family="sans-serif" font-size="11" lengthAdjust="spacing" textLength="82.8867" x="494.2148" y="211.0425">&#191;Listar Tareas?</text><rect fill="#F1F1F1" height="33.9688" rx="12.5" ry="12.5" style="stroke:#181818;stroke-width:0.5;" width="327.6055" x="371.8555" y="250.9448"/><text fill="#000000" font-family="sans-serif" font-size="12" lengthAdjust="spacing" textLength="307.6055" x="381.8555" y="272.0835">Llama al m&#233;todo ListarTareas() en el servicio SOAP</text><rect fill="#F1F1F1" height="33.9688" rx="12.5" ry="12.5" style="stroke:#181818;stroke-width:0.5;" width="225.0723" x="423.1221" y="304.9136"/><text fill="#000000" font-family="sans-serif" font-size="12" lengthAdjust="spacing" textLength="205.0723" x="433.1221" y="326.0522">Servicio consulta la base de datos</text><rect fill="#F1F1F1" height="33.9688" rx="12.5" ry="12.5" style="stroke:#181818;stroke-width:0.5;" width="172.4902" x="449.4131" y="358.8823"/><text fill="#000000" font-family="sans-serif" font-size="12" lengthAdjust="spacing" textLength="152.4902" x="459.4131" y="380.021">Muestra la lista de tareas</text><polygon fill="#F1F1F1" points="842.4692,195.2344,939.6323,195.2344,951.6323,207.2344,939.6323,219.2344,842.4692,219.2344,830.4692,207.2344,842.4692,195.2344" style="stroke:#181818;stroke-width:0.5;"/><text fill="#000000" font-family="sans-serif" font-size="11" lengthAdjust="spacing" textLength="8.7871" x="895.0508" y="229.4448">s&#237;</text><text fill="#000000" font-family="sans-serif" font-size="11" lengthAdjust="spacing" textLength="97.1631" x="842.4692" y="211.0425">&#191;Modificar Tarea?</text><rect fill="#F1F1F1" height="33.9688" rx="12.5" ry="12.5" style="stroke:#181818;stroke-width:0.5;" width="146.4688" x="817.8164" y="250.9448"/><text fill="#000000" font-family="sans-serif" font-size="12" lengthAdjust="spacing" textLength="126.4688" x="827.8164" y="272.0835">Selecciona una tarea</text><rect fill="#F1F1F1" height="33.9688" rx="12.5" ry="12.5" style="stroke:#181818;stroke-width:0.5;" width="161.5156" x="810.293" y="304.9136"/><text fill="#000000" font-family="sans-serif" font-size="12" lengthAdjust="spacing" textLength="141.5156" x="820.293" y="326.0522">Introduce nuevos datos</text><rect fill="#F1F1F1" height="33.9688" rx="12.5" ry="12.5" style="stroke:#181818;stroke-width:0.5;" width="343.1797" x="719.4609" y="358.8823"/><text fill="#000000" font-family="sans-serif" font-size="12" lengthAdjust="spacing" textLength="323.1797" x="729.4609" y="380.021">Llama al m&#233;todo ModificarTarea() en el servicio SOAP</text><rect fill="#F1F1F1" height="33.9688" rx="12.5" ry="12.5" style="stroke:#181818;stroke-width:0.5;" width="228.2129" x="776.9443" y="412.8511"/><text fill="#000000" font-family="sans-serif" font-size="12" lengthAdjust="spacing" textLength="208.2129" x="786.9443" y="433.9897">Servicio actualiza la base de datos</text><rect fill="#F1F1F1" height="33.9688" rx="12.5" ry="12.5" style="stroke:#181818;stroke-width:0.5;" width="210.6816" x="785.71" y="466.8198"/><text fill="#000000" font-family="sans-serif" font-size="12" lengthAdjust="spacing" textLength="190.6816" x="795.71" y="487.9585">Tarea modificada exitosamente</text><polygon fill="#F1F1F1" points="1195.4021,195.2344,1287.135,195.2344,1299.135,207.2344,1287.135,219.2344,1195.4021,219.2344,1183.4021,207.2344,1195.4021,195.2344" style="stroke:#181818;stroke-width:0.5;"/><text fill="#000000" font-family="sans-serif" font-size="11" lengthAdjust="spacing" textLength="8.7871" x="1245.2686" y="229.4448">s&#237;</text><text fill="#000000" font-family="sans-serif" font-size="11" lengthAdjust="spacing" textLength="91.7329" x="1195.4021" y="211.0425">&#191;Eliminar Tarea?</text><rect fill="#F1F1F1" height="33.9688" rx="12.5" ry="12.5" style="stroke:#181818;stroke-width:0.5;" width="146.4688" x="1168.0342" y="250.9448"/><text fill="#000000" font-family="sans-serif" font-size="12" lengthAdjust="spacing" textLength="126.4688" x="1178.0342" y="272.0835">Selecciona una tarea</text><rect fill="#F1F1F1" height="33.9688" rx="12.5" ry="12.5" style="stroke:#181818;stroke-width:0.5;" width="337.2559" x="1072.6406" y="304.9136"/><text fill="#000000" font-family="sans-serif" font-size="12" lengthAdjust="spacing" textLength="317.2559" x="1082.6406" y="326.0522">Llama al m&#233;todo EliminarTarea() en el servicio SOAP</text><rect fill="#F1F1F1" height="33.9688" rx="12.5" ry="12.5" style="stroke:#181818;stroke-width:0.5;" width="287.1699" x="1097.6836" y="358.8823"/><text fill="#000000" font-family="sans-serif" font-size="12" lengthAdjust="spacing" textLength="267.1699" x="1107.6836" y="380.021">Servicio elimina la tarea de la base de datos</text><rect fill="#F1F1F1" height="33.9688" rx="12.5" ry="12.5" style="stroke:#181818;stroke-width:0.5;" width="203.2227" x="1139.6572" y="412.8511"/><text fill="#000000" font-family="sans-serif" font-size="12" lengthAdjust="spacing" textLength="183.2227" x="1149.6572" y="433.9897">Tarea eliminada exitosamente</text><ellipse cx="735.4482" cy="551.7886" fill="none" rx="11" ry="11" style="stroke:#222222;stroke-width:1;"/><ellipse cx="735.4482" cy="551.7886" fill="#222222" rx="6" ry="6" style="stroke:#222222;stroke-width:1;"/><line style="stroke:#181818;stroke-width:1;" x1="735.4482" x2="735.4482" y1="67.2969" y2="87.2969"/><polygon fill="#181818" points="731.4482,77.2969,735.4482,87.2969,739.4482,77.2969,735.4482,81.2969" style="stroke:#181818;stroke-width:1;"/><line style="stroke:#181818;stroke-width:1;" x1="735.4482" x2="735.4482" y1="121.2656" y2="141.2656"/><polygon fill="#181818" points="731.4482,131.2656,735.4482,141.2656,739.4482,131.2656,735.4482,135.2656" style="stroke:#181818;stroke-width:1;"/><line style="stroke:#181818;stroke-width:1;" x1="186.4277" x2="186.4277" y1="284.9136" y2="304.9136"/><polygon fill="#181818" points="182.4277,294.9136,186.4277,304.9136,190.4277,294.9136,186.4277,298.9136" style="stroke:#181818;stroke-width:1;"/><line style="stroke:#181818;stroke-width:1;" x1="186.4277" x2="186.4277" y1="338.8823" y2="358.8823"/><polygon fill="#181818" points="182.4277,348.8823,186.4277,358.8823,190.4277,348.8823,186.4277,352.8823" style="stroke:#181818;stroke-width:1;"/><line style="stroke:#181818;stroke-width:1;" x1="186.4277" x2="186.4277" y1="392.8511" y2="412.8511"/><polygon fill="#181818" points="182.4277,402.8511,186.4277,412.8511,190.4277,402.8511,186.4277,406.8511" style="stroke:#181818;stroke-width:1;"/><line style="stroke:#181818;stroke-width:1;" x1="535.6582" x2="535.6582" y1="284.9136" y2="304.9136"/><polygon fill="#181818" points="531.6582,294.9136,535.6582,304.9136,539.6582,294.9136,535.6582,298.9136" style="stroke:#181818;stroke-width:1;"/><line style="stroke:#181818;stroke-width:1;" x1="535.6582" x2="535.6582" y1="338.8823" y2="358.8823"/><polygon fill="#181818" points="531.6582,348.8823,535.6582,358.8823,539.6582,348.8823,535.6582,352.8823" style="stroke:#181818;stroke-width:1;"/><line style="stroke:#181818;stroke-width:1;" x1="891.0508" x2="891.0508" y1="284.9136" y2="304.9136"/><polygon fill="#181818" points="887.0508,294.9136,891.0508,304.9136,895.0508,294.9136,891.0508,298.9136" style="stroke:#181818;stroke-width:1;"/><line style="stroke:#181818;stroke-width:1;" x1="891.0508" x2="891.0508" y1="338.8823" y2="358.8823"/><polygon fill="#181818" points="887.0508,348.8823,891.0508,358.8823,895.0508,348.8823,891.0508,352.8823" style="stroke:#181818;stroke-width:1;"/><line style="stroke:#181818;stroke-width:1;" x1="891.0508" x2="891.0508" y1="392.8511" y2="412.8511"/><polygon fill="#181818" points="887.0508,402.8511,891.0508,412.8511,895.0508,402.8511,891.0508,406.8511" style="stroke:#181818;stroke-width:1;"/><line style="stroke:#181818;stroke-width:1;" x1="891.0508" x2="891.0508" y1="446.8198" y2="466.8198"/><polygon fill="#181818" points="887.0508,456.8198,891.0508,466.8198,895.0508,456.8198,891.0508,460.8198" style="stroke:#181818;stroke-width:1;"/><line style="stroke:#181818;stroke-width:1;" x1="1241.2686" x2="1241.2686" y1="284.9136" y2="304.9136"/><polygon fill="#181818" points="1237.2686,294.9136,1241.2686,304.9136,1245.2686,294.9136,1241.2686,298.9136" style="stroke:#181818;stroke-width:1;"/><line style="stroke:#181818;stroke-width:1;" x1="1241.2686" x2="1241.2686" y1="338.8823" y2="358.8823"/><polygon fill="#181818" points="1237.2686,348.8823,1241.2686,358.8823,1245.2686,348.8823,1241.2686,352.8823" style="stroke:#181818;stroke-width:1;"/><line style="stroke:#181818;stroke-width:1;" x1="1241.2686" x2="1241.2686" y1="392.8511" y2="412.8511"/><polygon fill="#181818" points="1237.2686,402.8511,1241.2686,412.8511,1245.2686,402.8511,1241.2686,406.8511" style="stroke:#181818;stroke-width:1;"/><line style="stroke:#181818;stroke-width:1;" x1="186.4277" x2="186.4277" y1="219.2344" y2="250.9448"/><polygon fill="#181818" points="182.4277,240.9448,186.4277,250.9448,190.4277,240.9448,186.4277,244.9448" style="stroke:#181818;stroke-width:1;"/><line style="stroke:#181818;stroke-width:1;" x1="186.4277" x2="186.4277" y1="446.8198" y2="520.7886"/><polygon fill="#181818" points="182.4277,510.7886,186.4277,520.7886,190.4277,510.7886,186.4277,514.7886" style="stroke:#181818;stroke-width:1;"/><line style="stroke:#181818;stroke-width:1;" x1="535.6582" x2="535.6582" y1="219.2344" y2="250.9448"/><polygon fill="#181818" points="531.6582,240.9448,535.6582,250.9448,539.6582,240.9448,535.6582,244.9448" style="stroke:#181818;stroke-width:1;"/><line style="stroke:#181818;stroke-width:1;" x1="535.6582" x2="535.6582" y1="392.8511" y2="520.7886"/><polygon fill="#181818" points="531.6582,510.7886,535.6582,520.7886,539.6582,510.7886,535.6582,514.7886" style="stroke:#181818;stroke-width:1;"/><line style="stroke:#181818;stroke-width:1;" x1="891.0508" x2="891.0508" y1="219.2344" y2="250.9448"/><polygon fill="#181818" points="887.0508,240.9448,891.0508,250.9448,895.0508,240.9448,891.0508,244.9448" style="stroke:#181818;stroke-width:1;"/><line style="stroke:#181818;stroke-width:1;" x1="891.0508" x2="891.0508" y1="500.7886" y2="520.7886"/><polygon fill="#181818" points="887.0508,510.7886,891.0508,520.7886,895.0508,510.7886,891.0508,514.7886" style="stroke:#181818;stroke-width:1;"/><line style="stroke:#181818;stroke-width:1;" x1="1241.2686" x2="1241.2686" y1="219.2344" y2="250.9448"/><polygon fill="#181818" points="1237.2686,240.9448,1241.2686,250.9448,1245.2686,240.9448,1241.2686,244.9448" style="stroke:#181818;stroke-width:1;"/><line style="stroke:#181818;stroke-width:1;" x1="1241.2686" x2="1241.2686" y1="446.8198" y2="520.7886"/><polygon fill="#181818" points="1237.2686,510.7886,1241.2686,520.7886,1245.2686,510.7886,1241.2686,514.7886" style="stroke:#181818;stroke-width:1;"/><line style="stroke:#181818;stroke-width:1;" x1="236.8767" x2="482.2148" y1="207.2344" y2="207.2344"/><polygon fill="#181818" points="472.2148,203.2344,482.2148,207.2344,472.2148,211.2344,476.2148,207.2344" style="stroke:#181818;stroke-width:1;"/><line style="stroke:#181818;stroke-width:1;" x1="589.1016" x2="830.4692" y1="207.2344" y2="207.2344"/><polygon fill="#181818" points="820.4692,203.2344,830.4692,207.2344,820.4692,211.2344,824.4692,207.2344" style="stroke:#181818;stroke-width:1;"/><line style="stroke:#181818;stroke-width:1;" x1="951.6323" x2="1183.4021" y1="207.2344" y2="207.2344"/><polygon fill="#181818" points="1173.4021,203.2344,1183.4021,207.2344,1173.4021,211.2344,1177.4021,207.2344" style="stroke:#181818;stroke-width:1;"/><line style="stroke:#181818;stroke-width:1;" x1="735.4482" x2="735.4482" y1="175.2344" y2="180.2344"/><line style="stroke:#181818;stroke-width:1;" x1="735.4482" x2="186.4277" y1="180.2344" y2="180.2344"/><line style="stroke:#181818;stroke-width:1;" x1="186.4277" x2="186.4277" y1="180.2344" y2="195.2344"/><polygon fill="#181818" points="182.4277,185.2344,186.4277,195.2344,190.4277,185.2344,186.4277,189.2344" style="stroke:#181818;stroke-width:1;"/><line style="stroke:#181818;stroke-width:1;" x1="1299.135" x2="1423.8965" y1="207.2344" y2="207.2344"/><line style="stroke:#181818;stroke-width:1;" x1="1423.8965" x2="1423.8965" y1="207.2344" y2="520.7886"/><polygon fill="#181818" points="1419.8965,510.7886,1423.8965,520.7886,1427.8965,510.7886,1423.8965,514.7886" style="stroke:#181818;stroke-width:1;"/><line style="stroke:#181818;stroke-width:1;" x1="186.4277" x2="1423.8965" y1="520.7886" y2="520.7886"/><line style="stroke:#181818;stroke-width:1;" x1="735.4482" x2="735.4482" y1="520.7886" y2="540.7886"/><polygon fill="#181818" points="731.4482,530.7886,735.4482,540.7886,739.4482,530.7886,735.4482,534.7886" style="stroke:#181818;stroke-width:1;"/><!--SRC=[dLDTIiD047xFAUQnlKBp858LX1Q5zWBZxhIEJ7R3_XJnHZxuv044Up5tisajZHLh80baPhwV-JPB3a9mnRXss21eWXk9JxRo0Lse9bDXCe603Ij640HiXHKgthwRkfeiI4WfjWOXfjksVO5NCFhyc3f21qjChuinX4SoCFBRjt45wPhSck2iZef0Ox0-SoVyaBlhqZ6Jh0a5ckrhiDf21zZXZSQGq4Z0aziaRHOMTvVt_TnYzqqAGCPzG4-Ped2rw13M4PrE0ezOEtnGwQ4Hw9bJFpPv2tL5ugbOct7UKF7cVp0ta5u6Il_Vn2jhV9GmLDytpYFvuBgoPF1SxtpuGw5pgtcL4ZkTmr66XwluZiX4skIC3lW75lTKPoI4AaGKVZdfigJHzD2_978jtB3vdy-1bHtO6KweZEnFKt-UJtlg1uQMJFAQVa3RVW40]--></g></svg>